<svg width="41" height="40" viewBox="0 0 41 40" fill="none" xmlns="http://www.w3.org/2000/svg">
<g id="subway:call-2" clip-path="url(#clip0_754_4257)">
<path id="Vector" d="M24.8201 29.2732C24.1795 27.9529 23.3513 26.992 21.9217 27.5779L19.1013 28.6248C16.8435 29.6717 15.7185 28.6248 14.5935 27.0545L9.52321 15.5076C8.8904 14.1873 9.21853 12.9451 10.6482 12.3592L14.5935 10.7889C16.0232 10.2029 15.7967 8.96073 15.156 7.64041L11.7732 1.34354C11.1326 0.0232263 9.82009 -0.297086 8.3904 0.288851C5.53103 1.47635 3.16384 3.3201 1.63259 6.06229C-0.242411 9.41385 0.695089 14.0701 1.07009 16.031C1.44509 17.992 2.75759 21.4217 4.4529 24.9529C6.14821 28.4842 7.63259 31.2576 8.96071 32.8279C10.2888 34.3982 13.4685 38.6951 17.4138 39.6482C20.6482 40.4295 24.1326 39.7732 26.992 38.5935C28.4217 38.0076 28.4295 36.7654 27.7888 35.4373L24.8201 29.2732ZM32.8045 9.22635H28.1873L34.3435 15.3826H20.4998V18.4607H34.3435L28.1951 24.6092H32.8123L40.5076 16.9139L32.8045 9.22635Z" fill="white"/>
</g>
<defs>
<clipPath id="clip0_754_4257">
<rect width="40" height="40" fill="white" transform="translate(0.5)"/>
</clipPath>
</defs>
</svg>
